<?xml version="1.0" encoding="UTF-8"?> <svg xmlns="http://www.w3.org/2000/svg" width="525" height="380" viewBox="0 0 525 380" fill="none"> <g clip-path="url(#clip0_45_130)"> <path d="M226.859 34.1007C232.622 40.0243 240.027 44.547 246.751 49.2299C253.435 53.8727 260.119 58.5155 266.803 63.1984C280.492 72.8043 294.1 82.4902 307.628 92.2161C334.405 111.468 360.941 131.12 387.197 151.132C394.641 156.816 402.126 162.459 409.61 168.062C416.895 173.466 424.059 179.95 432.304 183.792C435.226 185.153 437.467 181.19 435.706 178.949C430.543 172.425 423.179 167.342 416.735 162.139C410.411 157.016 404.047 151.893 397.563 146.97C384.275 136.843 370.947 126.797 357.499 116.911C330.962 97.3392 303.866 78.4077 276.489 60.0365C268.684 54.8333 260.88 49.6301 253.035 44.547C245.47 39.624 237.706 33.8605 229.3 30.6185C227.339 29.8581 225.298 32.4597 226.859 34.1007Z" fill="#202020"></path> <path d="M4.00244 20.0122L14.0085 2.00122L216.132 30.0183L234.143 36.022L434.265 182.111L426.26 202.123L398.243 208.127L322.197 210.128H168.103L4.00244 20.0122Z" fill="white"></path> <path d="M229.419 30.5387C226.137 29.6182 223.055 28.4975 219.693 27.8171C216.171 27.0966 212.649 26.4963 209.127 25.8959C202.082 24.6551 195.038 23.4144 187.994 22.2937C173.905 20.0523 159.777 17.891 145.608 15.8898C117.11 11.8473 88.5731 8.00497 60.0357 4.56287C52.1108 3.60228 44.186 2.68172 36.2611 1.84121C32.2987 1.40094 28.3363 0.920649 24.3339 0.600454C20.2114 0.240234 16.289 -0.280084 12.2065 0.720527C9.48481 1.36092 9.28469 4.80302 11.7262 5.96373C17.93 8.88551 25.6146 8.88551 32.3388 9.686C39.4231 10.5265 46.5074 11.367 53.5917 12.2476C67.7604 13.9686 81.929 15.7697 96.0977 17.6509C124.195 21.3731 152.252 25.4156 180.309 29.378C188.194 30.4987 196.119 31.5393 204.044 32.4999C208.006 32.9802 211.968 33.5005 215.931 33.9408C220.173 34.4211 224.256 34.3811 228.498 34.5011C230.66 34.5011 231.74 31.1791 229.419 30.5387Z" fill="#202020"></path> <path d="M8.00559 1.60063C7.16508 3.20161 6.28454 4.80258 5.48405 6.40356C4.76361 7.88446 4.24329 9.44542 3.763 11.0064C3.24268 12.7274 2.80241 14.4885 2.52224 16.2496C2.36215 17.2502 2.24207 18.2108 2.44219 19.2114C2.64232 20.172 2.88246 21.2126 3.84305 21.9731C4.40339 22.4133 5.2439 22.4534 5.84427 22.1332C6.80486 21.6929 7.12505 20.8524 7.56532 20.0919C8.08564 19.1714 8.20571 18.1707 8.40583 17.1301C8.56593 16.2896 8.72603 15.4491 8.88613 14.6086C8.96617 14.3284 9.0062 14.0082 9.08625 13.688C9.12627 13.4879 9.1663 13.2878 9.20632 13.0476C9.1663 13.2878 9.1663 13.2477 9.24635 12.8875C10.0068 9.80564 10.8073 6.64371 12.1281 3.76195C12.6084 2.72131 11.968 1.36048 11.0074 0.880191C10.0468 0.399898 8.52591 0.519971 8.00559 1.60063Z" fill="#202020"></path> <path d="M0.60014 22.1741C2.92156 25.4561 4.8027 29.0182 7.20417 32.3002C9.80576 35.8624 12.4073 39.4246 15.089 42.9467C19.972 49.3106 25.015 55.5544 30.0181 61.8383C40.4244 74.8462 51.0709 87.614 61.7975 100.342C83.0504 125.437 104.864 150.052 127.317 174.107C133.601 180.871 139.965 187.555 146.329 194.239C152.733 200.963 158.977 208.168 166.141 214.091C169.423 216.813 173.466 211.89 171.024 208.728C165.861 202.124 159.577 196.32 153.814 190.277C148.29 184.473 142.807 178.59 137.364 172.706C126.197 160.659 115.15 148.451 104.263 136.164C82.4501 111.549 61.1171 86.5333 40.3844 60.9977C34.5809 53.8334 28.7373 46.709 22.9738 39.5046C20.1721 36.0225 17.3303 32.6605 14.5286 29.2584C11.4468 25.5361 7.96463 22.2141 4.88275 18.5318C2.56134 15.6901 -1.52115 19.2523 0.60014 22.1741Z" fill="#202020"></path> <path d="M432.703 182.552C430.302 185.393 428.581 188.916 426.98 192.238C426.179 193.839 425.419 195.52 424.739 197.201C424.298 198.361 424.178 199.202 423.978 200.242C423.818 201.123 423.778 202.244 423.978 203.124C424.338 204.725 426.179 205.446 427.5 204.405C428.181 203.845 428.821 202.964 429.301 202.204C429.862 201.283 430.302 200.563 430.782 199.442C431.463 197.841 432.103 196.2 432.864 194.599C433.624 192.998 434.264 191.677 435.025 190.316C435.945 188.595 436.946 186.954 437.746 185.153C438.347 183.873 437.546 182.272 436.386 181.671C434.985 181.031 433.624 181.431 432.703 182.552Z" fill="#202020"></path> <path d="M424.298 201.283C416.053 201.883 407.848 203.324 399.603 204.085C391.438 204.845 383.273 205.325 375.108 205.646C358.738 206.246 342.328 206.046 325.958 205.966C292.738 205.806 259.517 206.046 226.297 206.686C207.606 207.047 188.754 206.566 170.103 207.847C166.26 208.127 166.581 214.371 170.383 214.571C187.233 215.492 204.244 214.771 221.094 214.811C237.584 214.851 254.074 214.771 270.604 214.691C303.664 214.451 336.804 214.291 369.825 212.69C378.91 212.25 387.996 211.649 397.041 210.729C406.447 209.768 416.093 208.848 425.178 206.166C428.26 205.285 427.54 201.043 424.298 201.283Z" fill="#202020"></path> <path d="M417.654 182.631C410.01 182.671 402.325 183.592 394.72 184.152C386.916 184.712 379.111 185.273 371.346 185.833C355.857 186.914 340.367 187.794 324.838 188.355C294.179 189.435 263.6 188.875 233.062 186.394C224.577 185.713 216.132 184.913 207.686 183.992C199.121 183.071 190.396 181.19 181.751 180.95C178.228 180.83 176.387 186.434 180.27 187.394C187.754 189.235 195.639 189.676 203.284 190.636C210.688 191.557 218.093 192.357 225.537 193.118C240.867 194.639 256.276 195.479 271.645 195.839C302.744 196.56 333.883 195.159 364.902 192.998C373.748 192.397 382.593 191.717 391.438 190.956C400.204 190.196 409.209 189.876 417.895 188.475C421.057 187.954 421.016 182.631 417.654 182.631Z" fill="#202020"></path> <path d="M163.779 164.02C160.017 158.657 154.614 154.334 149.931 149.812C145.288 145.329 140.645 140.886 136.042 136.403C126.677 127.278 117.351 118.112 108.105 108.867C89.654 90.3353 71.563 71.4038 53.8722 52.152C43.786 41.1453 33.98 29.9385 23.2135 19.5722C20.6519 17.0506 16.7295 20.2526 18.9309 23.2144C26.8557 33.9409 35.7811 43.7069 44.7866 53.5129C53.592 63.1588 62.5975 72.6846 71.643 82.1303C89.8941 101.182 108.425 119.913 127.517 138.124C132.76 143.128 138.044 148.091 143.367 153.014C148.73 158.017 154.133 163.9 160.497 167.623C162.939 169.103 165.42 166.342 163.779 164.02Z" fill="#202020"></path> <path d="M335.845 208.727C332.763 211.689 330.682 215.731 328.641 219.494C326.64 223.096 324.678 226.738 322.717 230.34C318.435 238.105 314.232 245.91 309.909 253.675C305.707 261.239 301.424 268.804 297.182 276.328C295.06 280.091 292.939 283.893 290.858 287.735C288.777 291.538 286.375 295.5 285.134 299.663C284.374 302.184 287.496 305.066 289.697 302.865C295.701 296.861 299.903 288.496 304.146 281.211C308.629 273.567 312.991 265.842 317.274 258.037C321.436 250.473 325.559 242.948 329.521 235.263C331.603 231.221 333.644 227.219 335.645 223.136C337.526 219.294 339.648 215.251 340.248 211.009C340.528 208.767 337.486 207.126 335.845 208.727Z" fill="#202020"></path> <path d="M67.6819 100.501C64.3198 102.182 62.6388 105.985 60.9178 109.147C58.9966 112.709 57.1154 116.271 55.3944 119.913C51.8722 127.318 48.5902 134.802 45.6284 142.447C42.7467 149.892 40.1051 157.456 37.7436 165.061C35.3422 172.786 32.3803 180.83 32.9407 188.995C33.1008 191.437 36.8231 192.117 38.0638 190.156C42.1463 183.472 43.5472 175.507 45.8686 168.063C48.23 160.418 50.8316 152.893 53.6733 145.409C56.475 138.124 59.4369 130.92 62.5988 123.836C64.2798 120.113 65.9608 116.391 67.6819 112.669C69.2028 109.387 71.3641 105.865 70.8838 102.142C70.7237 100.702 68.9627 99.861 67.6819 100.501Z" fill="#202020"></path> <path d="M288.417 299.103C278.891 298.863 269.365 299.343 259.84 298.943C250.634 298.543 241.588 297.502 232.503 295.861C214.452 292.619 196.601 287.896 179.431 281.412C161.259 274.568 144.289 265.482 127.359 255.997C110.629 246.631 94.0984 237.025 78.0086 226.579C69.7236 221.215 61.2384 215.972 53.9539 209.288C47.47 203.365 41.2662 195.96 39.3851 187.235C38.7447 184.313 33.7816 184.153 33.8217 187.475C33.9818 205.686 48.2705 217.013 61.6787 226.979C78.0486 239.146 95.5393 249.473 113.27 259.519C130.761 269.445 148.332 279.411 166.983 286.976C184.954 294.26 204.046 299.663 223.297 302.305C234.104 303.786 244.99 304.506 255.837 304.987C266.724 305.467 277.891 305.707 288.657 303.946C291.299 303.546 291.259 299.183 288.417 299.103Z" fill="#202020"></path> <path d="M415.053 204.085C413.812 219.854 419.295 236.344 425.659 250.593C429.021 258.198 433.224 265.322 437.426 272.447C441.509 279.331 445.391 286.575 450.074 293.099C451.275 294.78 453.917 292.979 453.036 291.178C449.554 284.134 445.191 277.49 441.589 270.485C437.987 263.481 434.705 256.277 431.623 248.992C428.581 241.908 425.819 234.744 423.818 227.259C421.777 219.614 420.616 211.729 419.375 203.885C418.975 201.483 415.253 201.603 415.053 204.085Z" fill="#202020"></path> <path d="M452.115 294.379C459.88 292.018 465.804 300.943 469.846 306.227C474.809 312.751 479.532 319.395 484.615 325.799C493.501 336.965 504.868 348.412 519.076 352.255C518.156 350.814 517.275 349.373 516.355 347.972C516.235 349.613 516.115 350.694 516.715 352.255C517.315 353.816 519.437 354.416 520.837 353.736C522.318 352.975 522.959 352.014 523.919 350.734C525.6 348.572 524.36 345.37 521.958 344.45C506.749 338.486 495.862 327.399 485.576 315.032C480.213 308.588 475.13 301.744 469.006 295.98C464.003 291.297 457.679 287.535 450.715 290.057C448.353 290.977 449.634 295.14 452.115 294.379Z" fill="#202020"></path> <path d="M457.119 291.498C448.553 288.056 442.63 298.782 441.149 305.546C439.268 314.072 440.949 323.157 443.07 331.482C445.271 340.047 448.353 348.373 452.396 356.257C454.477 360.3 456.798 364.222 459.36 368.025C461.641 371.427 464.323 376.47 467.885 378.551C470.527 380.072 473.368 377.67 472.288 374.829C471.087 371.627 467.885 368.785 465.884 365.983C463.683 362.861 461.641 359.659 459.8 356.297C456.158 349.733 453.076 342.729 450.915 335.525C448.834 328.681 447.072 321.356 446.992 314.192C446.912 307.668 448.593 297.261 456.678 296.501C459.36 296.221 459.36 292.378 457.119 291.498Z" fill="#202020"></path> <path d="M517.676 349.213C513.753 351.134 510.431 354.496 506.789 356.897C502.987 359.419 498.904 361.54 494.822 363.542C490.859 365.463 486.777 367.064 482.614 368.344C480.453 369.025 478.292 369.625 476.13 370.146C473.729 370.706 471.207 370.946 469.006 372.027C465.484 373.788 466.604 378.751 470.287 379.351C472.728 379.711 475.21 379.071 477.611 378.511C480.133 377.95 482.614 377.27 485.056 376.469C489.779 374.948 494.341 372.987 498.704 370.706C502.947 368.465 506.989 365.703 510.751 362.741C514.474 359.819 518.796 356.457 520.998 352.175C521.958 350.253 519.437 348.372 517.676 349.213Z" fill="#202020"></path> <path d="M450.235 304.506C451.596 313.712 453.717 322.757 457.519 331.282C461.241 339.607 466.485 347.612 472.408 354.577C474.009 356.458 476.651 354.096 475.29 352.135C465.204 338.046 457.599 320.876 454.798 303.706C454.277 300.744 449.794 301.544 450.235 304.506Z" fill="#202020"></path> <path d="M477.652 337.806C479.613 341.208 481.534 344.57 483.495 347.972C485.457 351.375 487.618 354.657 489.659 357.979C490.219 358.859 491.22 359.379 492.221 358.899C493.141 358.459 493.621 357.258 493.141 356.338C491.34 352.895 489.579 349.373 487.658 346.011C485.737 342.609 483.775 339.207 481.854 335.845C481.214 334.764 479.933 334.164 478.732 334.724C477.692 335.245 477.051 336.726 477.652 337.806Z" fill="#202020"></path> <path d="M401.753 65.7357C403.352 61.8607 405.068 58.0377 406.745 54.2031C408.433 50.3634 410.148 46.5404 411.894 42.7267C413.68 38.835 415.207 34.6335 417.74 31.16C419.761 28.3764 425.876 29.594 424.842 33.5931C423.771 37.7123 421.393 41.5376 419.512 45.3345C417.636 49.1164 415.727 52.8716 413.787 56.6176C411.845 60.3711 409.926 64.1316 407.898 67.8423C405.904 71.4975 404.055 75.5099 401.188 78.5932C399.997 79.8723 397.493 79.4412 397.734 77.4106C398.204 73.362 400.216 69.4653 401.753 65.7357Z" fill="#040202"></path> <path d="M401.753 65.7357C403.352 61.8607 405.068 58.0377 406.745 54.2031C408.433 50.3634 410.148 46.5404 411.894 42.7267C413.68 38.835 415.207 34.6335 417.74 31.16C419.761 28.3764 425.876 29.594 424.842 33.5931C423.771 37.7123 421.393 41.5376 419.512 45.3345C417.636 49.1164 415.727 52.8716 413.787 56.6176C411.845 60.3711 409.926 64.1316 407.898 67.8423C405.904 71.4975 404.055 75.5099 401.188 78.5932C399.997 79.8723 397.493 79.4412 397.734 77.4106C398.204 73.362 400.216 69.4653 401.753 65.7357Z" fill="black" fill-opacity="0.2"></path> <path d="M353.615 23.5704C354.749 27.2725 354.544 31.2381 354.669 35.0746C354.799 39.2663 354.947 43.4552 354.963 47.6445C354.994 55.5138 355.368 63.6114 354.349 71.4296C354.147 72.9872 351.123 73.778 350.655 72.0067C348.661 64.4895 348.006 56.5522 347.056 48.8452C346.574 44.9321 346.212 41.0065 345.835 37.0762C345.457 33.0715 344.648 28.8526 345.31 24.8544C345.893 21.3748 352.397 19.5794 353.615 23.5704Z" fill="#040202"></path> <path d="M353.615 23.5704C354.749 27.2725 354.544 31.2381 354.669 35.0746C354.799 39.2663 354.947 43.4552 354.963 47.6445C354.994 55.5138 355.368 63.6114 354.349 71.4296C354.147 72.9872 351.123 73.778 350.655 72.0067C348.661 64.4895 348.006 56.5522 347.056 48.8452C346.574 44.9321 346.212 41.0065 345.835 37.0762C345.457 33.0715 344.648 28.8526 345.31 24.8544C345.893 21.3748 352.397 19.5794 353.615 23.5704Z" fill="black" fill-opacity="0.2"></path> <path d="M418.621 116.989C424.741 109.124 432.805 102.512 440.196 95.8589C443.866 92.5613 447.622 89.3562 451.348 86.1169C454.971 82.9694 459.194 77.8355 464.113 77.1241C466.338 76.8035 469.152 78.5298 468.441 81.1151C467.155 85.8181 461.594 88.922 457.934 91.8939C453.924 95.1444 449.951 98.4314 445.886 101.616C437.855 107.909 429.765 114.685 420.744 119.556C419.063 120.471 417.509 118.416 418.621 116.989Z" fill="#040202"></path> <path d="M418.621 116.989C424.741 109.124 432.805 102.512 440.196 95.8589C443.866 92.5613 447.622 89.3562 451.348 86.1169C454.971 82.9694 459.194 77.8355 464.113 77.1241C466.338 76.8035 469.152 78.5298 468.441 81.1151C467.155 85.8181 461.594 88.922 457.934 91.8939C453.924 95.1444 449.951 98.4314 445.886 101.616C437.855 107.909 429.765 114.685 420.744 119.556C419.063 120.471 417.509 118.416 418.621 116.989Z" fill="black" fill-opacity="0.2"></path> </g> <defs> <clipPath id="clip0_45_130"> <rect width="131.17" height="94.8" fill="white" transform="scale(4.00244)"></rect> </clipPath> </defs> </svg> 