<?xml version="1.0" encoding="UTF-8"?> <svg xmlns="http://www.w3.org/2000/svg" width="56" height="56" viewBox="0 0 56 56" fill="none"> <g clip-path="url(#clip0)"> <path d="M44.0607 52.8956V46.8915L38.5407 47.3768V53.2988C38.5346 53.3601 38.5346 53.4211 38.5407 53.4815C38.5746 53.8144 38.7949 54.1283 39.2099 54.3679C40.2088 54.9446 41.9538 54.8724 43.1072 54.2064C43.7562 53.8317 44.0797 53.3489 44.0607 52.8956V52.8956Z" fill="url(#paint0_linear)"></path> <path d="M41.2989 49.5174C43.0653 49.5174 44.4973 48.0855 44.4973 46.3191C44.4973 44.5527 43.0653 43.1207 41.2989 43.1207C39.5325 43.1207 38.1006 44.5527 38.1006 46.3191C38.1006 48.0855 39.5325 49.5174 41.2989 49.5174Z" fill="url(#paint1_linear)"></path> <path d="M46.8005 29.8699V16.8253L9.22571 20.129V32.6145C9.18393 33.0318 9.18382 33.447 9.22571 33.8582C9.45638 36.1239 10.956 38.261 13.7806 39.8916C20.5807 43.8176 32.4585 43.3254 40.3105 38.792C44.7277 36.2416 46.9299 32.9556 46.8005 29.8699V29.8699Z" fill="url(#paint2_linear)"></path> <path d="M0 19.2794V24.6629L0.00317187 24.6628C-0.0142187 25.2712 0.275844 25.8872 0.878172 26.235L21.7156 38.2655C23.6499 39.3822 26.033 39.3822 27.9672 38.2655L55.1217 22.5878C55.7072 22.2497 56 21.6582 56 21.0666V15.7617L0 19.2794Z" fill="url(#paint3_linear)"></path> <path d="M0.879203 20.8005L21.7167 32.831C23.651 33.9477 26.034 33.9477 27.9682 32.831L55.1226 17.1533C56.2936 16.4773 56.2936 14.7871 55.1226 14.1109L34.2853 2.08046C32.351 0.96374 29.9679 0.96374 28.0337 2.08046L0.879203 17.7582C-0.291766 18.4342 -0.291766 20.1244 0.879203 20.8005V20.8005Z" fill="url(#paint4_linear)"></path> <path d="M41.2989 45.5685C40.5392 45.5685 39.9233 44.9526 39.9233 44.1929V25.9282L27.3121 18.6471C26.6541 18.2672 26.4287 17.4258 26.8085 16.7679C27.1885 16.11 28.0294 15.8845 28.6877 16.2643L41.9866 23.9426C42.4122 24.1882 42.6745 24.6425 42.6745 25.1339V44.1928C42.6745 44.9526 42.0586 45.5685 41.2989 45.5685V45.5685Z" fill="#F7E041"></path> </g> <defs> <linearGradient id="paint0_linear" x1="36.2889" y1="50.8244" x2="44.3226" y2="50.8244" gradientUnits="userSpaceOnUse"> <stop stop-color="#DEA861"></stop> <stop offset="0.2843" stop-color="#F5BC44"></stop> <stop offset="0.4562" stop-color="#FFC538"></stop> <stop offset="0.6808" stop-color="#FAD53D"></stop> <stop offset="0.8982" stop-color="#F7E041"></stop> </linearGradient> <linearGradient id="paint1_linear" x1="38.1005" y1="46.3191" x2="44.4973" y2="46.3191" gradientUnits="userSpaceOnUse"> <stop stop-color="#DEA861"></stop> <stop offset="0.2843" stop-color="#F5BC44"></stop> <stop offset="0.4562" stop-color="#FFC538"></stop> <stop offset="0.6808" stop-color="#FAD53D"></stop> <stop offset="0.8982" stop-color="#F7E041"></stop> </linearGradient> <linearGradient id="paint2_linear" x1="22.6016" y1="29.6837" x2="33.0429" y2="29.6837" gradientUnits="userSpaceOnUse"> <stop offset="0.1018" stop-color="#41464E"></stop> <stop offset="0.5876" stop-color="#4B515A"></stop> <stop offset="1" stop-color="#565D68"></stop> </linearGradient> <linearGradient id="paint3_linear" x1="24.4845" y1="27.4324" x2="32.7706" y2="27.4324" gradientUnits="userSpaceOnUse"> <stop stop-color="#565D68"></stop> <stop offset="0.1002" stop-color="#5C636F"></stop> <stop offset="0.6138" stop-color="#78808F"></stop> <stop offset="0.8982" stop-color="#838B9B"></stop> </linearGradient> <linearGradient id="paint4_linear" x1="4.41464" y1="31.0734" x2="52.2856" y2="3.43496" gradientUnits="userSpaceOnUse"> <stop stop-color="#565D68"></stop> <stop offset="0.1002" stop-color="#5C636F"></stop> <stop offset="0.6138" stop-color="#78808F"></stop> <stop offset="0.8982" stop-color="#838B9B"></stop> </linearGradient> <clipPath id="clip0"> <rect width="56" height="56" fill="white"></rect> </clipPath> </defs> </svg> 