<?xml version="1.0" encoding="UTF-8"?> <svg xmlns="http://www.w3.org/2000/svg" width="46" height="50" viewBox="0 0 46 50" fill="none"> <g clip-path="url(#clip0)"> <path d="M24.9124 0.562313L24.0591 0.0721763L24.059 0.0723716C23.9252 -0.0257729 23.7418 -0.028312 23.5394 0.0885826L1.56787 12.7738C1.1582 13.0104 0.826172 13.6447 0.826172 14.1909V48.8344C0.826172 49.1478 0.935839 49.3633 1.10644 49.4459L1.10635 49.4461L1.96719 49.9431L24.9124 0.562313Z" fill="url(#paint0_linear)"></path> <path d="M24.4328 0.604354L2.46143 13.2896C2.05186 13.5261 1.71973 14.1606 1.71973 14.7067V49.3501C1.71973 49.8962 2.05176 50.1472 2.46143 49.9108L24.4328 37.2256C24.8424 36.9891 25.1745 36.3547 25.1745 35.8086V1.1651C25.1745 0.618904 24.8424 0.367928 24.4328 0.604354V0.604354Z" fill="url(#paint1_linear)"></path> <path d="M10.0853 13.5306L18.4238 8.63532C18.8412 8.39206 19.3651 8.69303 19.3651 9.17614C19.3651 9.76432 19.0526 10.3082 18.5445 10.6044L10.206 15.4997C9.78857 15.7429 9.26465 15.4419 9.26465 14.9589C9.26465 14.3707 9.57715 13.8268 10.0853 13.5306V13.5306Z" fill="#B5B9C3"></path> <path d="M5.31211 22.736L22.1254 12.9286C22.5226 12.6971 23.0211 12.9836 23.0211 13.4433C23.0211 14.003 22.7237 14.5204 22.2402 14.8023L5.42695 24.6097C5.02978 24.8412 4.53125 24.5547 4.53125 24.095C4.53125 23.5354 4.82861 23.0178 5.31211 22.736V22.736Z" fill="#B5B9C3"></path> <path d="M5.31211 27.0617L22.1254 17.2543C22.5226 17.0228 23.0211 17.3093 23.0211 17.769C23.0211 18.3286 22.7237 18.8461 22.2402 19.128L5.42695 28.9353C5.02978 29.1668 4.53125 28.8803 4.53125 28.4206C4.53125 27.861 4.82861 27.3435 5.31211 27.0617V27.0617Z" fill="#B5B9C3"></path> <path d="M5.31211 31.3875L22.1254 21.5801C22.5226 21.3486 23.0211 21.6351 23.0211 22.0948C23.0211 22.6545 22.7237 23.1719 22.2402 23.4538L5.42695 33.2611C5.02978 33.4926 4.53125 33.2061 4.53125 32.7464C4.53125 32.1868 4.82861 31.6693 5.31211 31.3875V31.3875Z" fill="#B5B9C3"></path> <path d="M19.364 18.6118C16.8731 20.0499 14.8467 18.518 14.8467 15.1969C14.8467 11.8758 16.8731 8.00394 19.364 6.56585C21.8548 5.12777 23.8812 6.6597 23.8812 9.98079C23.8812 13.302 21.8549 17.1739 19.364 18.6118ZM19.364 7.747C17.3616 8.90306 15.7325 12.0157 15.7325 14.6855C15.7325 17.3553 17.3615 18.5868 19.364 17.4308C21.3663 16.2747 22.9954 13.1621 22.9954 10.4923C22.9954 7.82249 21.3664 6.59095 19.364 7.747V7.747Z" fill="url(#paint2_linear)"></path> <path d="M5.31211 35.631L22.1254 25.8237C22.5226 25.5921 23.0211 25.8786 23.0211 26.3383C23.0211 26.898 22.7237 27.4155 22.2402 27.6973L5.42695 37.5047C5.02978 37.7363 4.53125 37.4498 4.53125 36.9901C4.53125 36.4304 4.82861 35.9129 5.31211 35.631V35.631Z" fill="#B5B9C3"></path> <path d="M5.31211 39.9566L14.9387 34.311C15.3358 34.0794 15.8344 34.366 15.8344 34.8256C15.8344 35.3853 15.537 35.9028 15.0535 36.1846L5.42695 41.8302C5.02978 42.0616 4.53125 41.7752 4.53125 41.3156C4.53125 40.756 4.82861 40.2384 5.31211 39.9566V39.9566Z" fill="#B5B9C3"></path> <path d="M18.3408 9.64045C18.2846 9.51106 18.1646 9.47483 18.0308 9.54699C17.8969 9.61965 17.7727 9.78723 17.7097 9.98098L15.1793 17.7645C15.0876 18.0465 15.1525 18.2938 15.3244 18.3168C15.4963 18.3399 15.7099 18.1299 15.8015 17.848L16.6427 15.2606L19.1746 13.7988L19.8961 15.4602C19.9558 15.5975 20.0832 15.6249 20.2163 15.548C20.2658 15.5194 20.3163 15.4763 20.3642 15.419C20.5409 15.2078 20.6178 14.884 20.5361 14.6955L18.3408 9.64045ZM17.019 14.103L17.9984 11.0903L18.8482 13.047L17.019 14.103Z" fill="url(#paint3_linear)"></path> <path d="M22.4347 9.43744L21.7585 9.82777V8.92621C21.7585 8.66654 21.6006 8.5472 21.4059 8.65961C21.2111 8.77201 21.0532 9.07367 21.0532 9.33334V10.2349L20.3771 10.6252C20.1823 10.7376 20.0244 11.0393 20.0244 11.299C20.0244 11.5586 20.1823 11.678 20.3771 11.5656L21.0532 11.1752V12.0767C21.0532 12.3364 21.2111 12.4557 21.4059 12.3433C21.6006 12.2309 21.7585 11.9292 21.7585 11.6696V10.7681L22.4347 10.3778C22.6294 10.2654 22.7873 9.96371 22.7873 9.70404C22.7873 9.44437 22.6294 9.32494 22.4347 9.43744Z" fill="url(#paint4_linear)"></path> </g> <g clip-path="url(#clip1)"> <path d="M34.9124 0.562313L34.0591 0.0721763L34.059 0.0723716C33.9252 -0.0257729 33.7418 -0.028312 33.5394 0.0885826L11.5679 12.7738C11.1582 13.0104 10.8262 13.6447 10.8262 14.1909V48.8344C10.8262 49.1478 10.9358 49.3633 11.1064 49.4459L11.1063 49.4461L11.9672 49.9431L34.9124 0.562313Z" fill="url(#paint5_linear)"></path> <path d="M34.4328 0.604354L12.4614 13.2896C12.0519 13.5261 11.7197 14.1606 11.7197 14.7067V49.3501C11.7197 49.8962 12.0518 50.1472 12.4614 49.9108L34.4328 37.2256C34.8424 36.9891 35.1745 36.3547 35.1745 35.8086V1.1651C35.1745 0.618904 34.8424 0.367928 34.4328 0.604354V0.604354Z" fill="url(#paint6_linear)"></path> <path d="M20.0853 13.5306L28.4238 8.63532C28.8412 8.39206 29.3651 8.69303 29.3651 9.17614C29.3651 9.76432 29.0526 10.3082 28.5445 10.6044L20.206 15.4997C19.7886 15.7429 19.2646 15.4419 19.2646 14.9589C19.2646 14.3707 19.5771 13.8268 20.0853 13.5306V13.5306Z" fill="#B5B9C3"></path> <path d="M15.3121 22.736L32.1254 12.9286C32.5226 12.6971 33.0211 12.9836 33.0211 13.4433C33.0211 14.003 32.7237 14.5204 32.2402 14.8023L15.427 24.6097C15.0298 24.8412 14.5312 24.5547 14.5312 24.095C14.5312 23.5354 14.8286 23.0178 15.3121 22.736V22.736Z" fill="#B5B9C3"></path> <path d="M15.3121 27.0617L32.1254 17.2543C32.5226 17.0228 33.0211 17.3093 33.0211 17.769C33.0211 18.3286 32.7237 18.8461 32.2402 19.128L15.427 28.9353C15.0298 29.1668 14.5312 28.8803 14.5312 28.4206C14.5312 27.861 14.8286 27.3435 15.3121 27.0617V27.0617Z" fill="#B5B9C3"></path> <path d="M15.3121 31.3875L32.1254 21.5801C32.5226 21.3486 33.0211 21.6351 33.0211 22.0948C33.0211 22.6545 32.7237 23.1719 32.2402 23.4538L15.427 33.2611C15.0298 33.4926 14.5312 33.2061 14.5312 32.7464C14.5312 32.1868 14.8286 31.6693 15.3121 31.3875V31.3875Z" fill="#B5B9C3"></path> <path d="M29.364 18.6118C26.8731 20.0499 24.8467 18.518 24.8467 15.1969C24.8467 11.8758 26.8731 8.00394 29.364 6.56585C31.8548 5.12777 33.8812 6.6597 33.8812 9.98079C33.8812 13.302 31.8549 17.1739 29.364 18.6118ZM29.364 7.747C27.3616 8.90306 25.7325 12.0157 25.7325 14.6855C25.7325 17.3553 27.3615 18.5868 29.364 17.4308C31.3663 16.2747 32.9954 13.1621 32.9954 10.4923C32.9954 7.82249 31.3664 6.59095 29.364 7.747V7.747Z" fill="url(#paint7_linear)"></path> <path d="M15.3121 35.631L32.1254 25.8237C32.5226 25.5921 33.0211 25.8786 33.0211 26.3383C33.0211 26.898 32.7237 27.4155 32.2402 27.6973L15.427 37.5047C15.0298 37.7363 14.5312 37.4498 14.5312 36.9901C14.5312 36.4304 14.8286 35.9129 15.3121 35.631V35.631Z" fill="#B5B9C3"></path> <path d="M15.3121 39.9566L24.9387 34.311C25.3358 34.0794 25.8344 34.366 25.8344 34.8256C25.8344 35.3853 25.537 35.9028 25.0535 36.1846L15.427 41.8302C15.0298 42.0616 14.5312 41.7752 14.5312 41.3156C14.5312 40.756 14.8286 40.2384 15.3121 39.9566V39.9566Z" fill="#B5B9C3"></path> <path d="M28.3408 9.64045C28.2846 9.51106 28.1646 9.47483 28.0308 9.54699C27.8969 9.61965 27.7727 9.78723 27.7097 9.98098L25.1793 17.7645C25.0876 18.0465 25.1525 18.2938 25.3244 18.3168C25.4963 18.3399 25.7099 18.1299 25.8015 17.848L26.6427 15.2606L29.1746 13.7988L29.8961 15.4602C29.9558 15.5975 30.0832 15.6249 30.2163 15.548C30.2658 15.5194 30.3163 15.4763 30.3642 15.419C30.5409 15.2078 30.6178 14.884 30.5361 14.6955L28.3408 9.64045ZM27.019 14.103L27.9984 11.0903L28.8482 13.047L27.019 14.103Z" fill="url(#paint8_linear)"></path> <path d="M32.4347 9.43744L31.7585 9.82777V8.92621C31.7585 8.66654 31.6006 8.5472 31.4059 8.65961C31.2111 8.77201 31.0532 9.07367 31.0532 9.33334V10.2349L30.3771 10.6252C30.1823 10.7376 30.0244 11.0393 30.0244 11.299C30.0244 11.5586 30.1823 11.678 30.3771 11.5656L31.0532 11.1752V12.0767C31.0532 12.3364 31.2111 12.4557 31.4059 12.3433C31.6006 12.2309 31.7585 11.9292 31.7585 11.6696V10.7681L32.4347 10.3778C32.6294 10.2654 32.7873 9.96371 32.7873 9.70404C32.7873 9.44437 32.6294 9.32494 32.4347 9.43744Z" fill="url(#paint9_linear)"></path> </g> <g clip-path="url(#clip2)"> <path d="M44.9124 0.562313L44.0591 0.0721763L44.059 0.0723716C43.9252 -0.0257729 43.7418 -0.028312 43.5394 0.0885826L21.5679 12.7738C21.1582 13.0104 20.8262 13.6447 20.8262 14.1909V48.8344C20.8262 49.1478 20.9358 49.3633 21.1064 49.4459L21.1063 49.4461L21.9672 49.9431L44.9124 0.562313Z" fill="url(#paint10_linear)"></path> <path d="M44.4328 0.604354L22.4614 13.2896C22.0519 13.5261 21.7197 14.1606 21.7197 14.7067V49.3501C21.7197 49.8962 22.0518 50.1472 22.4614 49.9108L44.4328 37.2256C44.8424 36.9891 45.1745 36.3547 45.1745 35.8086V1.1651C45.1745 0.618904 44.8424 0.367928 44.4328 0.604354V0.604354Z" fill="url(#paint11_linear)"></path> <path d="M30.0853 13.5306L38.4238 8.63532C38.8412 8.39206 39.3651 8.69303 39.3651 9.17614C39.3651 9.76432 39.0526 10.3082 38.5445 10.6044L30.206 15.4997C29.7886 15.7429 29.2646 15.4419 29.2646 14.9589C29.2646 14.3707 29.5771 13.8268 30.0853 13.5306V13.5306Z" fill="#B5B9C3"></path> <path d="M25.3121 22.736L42.1254 12.9286C42.5226 12.6971 43.0211 12.9836 43.0211 13.4433C43.0211 14.003 42.7237 14.5204 42.2402 14.8023L25.427 24.6097C25.0298 24.8412 24.5312 24.5547 24.5312 24.095C24.5312 23.5354 24.8286 23.0178 25.3121 22.736V22.736Z" fill="#B5B9C3"></path> <path d="M25.3121 27.0617L42.1254 17.2543C42.5226 17.0228 43.0211 17.3093 43.0211 17.769C43.0211 18.3286 42.7237 18.8461 42.2402 19.128L25.427 28.9353C25.0298 29.1668 24.5312 28.8803 24.5312 28.4206C24.5312 27.861 24.8286 27.3435 25.3121 27.0617V27.0617Z" fill="#B5B9C3"></path> <path d="M25.3121 31.3875L42.1254 21.5801C42.5226 21.3486 43.0211 21.6351 43.0211 22.0948C43.0211 22.6545 42.7237 23.1719 42.2402 23.4538L25.427 33.2611C25.0298 33.4926 24.5312 33.2061 24.5312 32.7464C24.5312 32.1868 24.8286 31.6693 25.3121 31.3875V31.3875Z" fill="#B5B9C3"></path> <path d="M39.364 18.6118C36.8731 20.0499 34.8467 18.518 34.8467 15.1969C34.8467 11.8758 36.8731 8.00394 39.364 6.56585C41.8548 5.12777 43.8812 6.6597 43.8812 9.98079C43.8812 13.302 41.8549 17.1739 39.364 18.6118ZM39.364 7.747C37.3616 8.90306 35.7325 12.0157 35.7325 14.6855C35.7325 17.3553 37.3615 18.5868 39.364 17.4308C41.3663 16.2747 42.9954 13.1621 42.9954 10.4923C42.9954 7.82249 41.3664 6.59095 39.364 7.747V7.747Z" fill="url(#paint12_linear)"></path> <path d="M25.3121 35.631L42.1254 25.8237C42.5226 25.5921 43.0211 25.8786 43.0211 26.3383C43.0211 26.898 42.7237 27.4155 42.2402 27.6973L25.427 37.5047C25.0298 37.7363 24.5312 37.4498 24.5312 36.9901C24.5312 36.4304 24.8286 35.9129 25.3121 35.631V35.631Z" fill="#B5B9C3"></path> <path d="M25.3121 39.9566L34.9387 34.311C35.3358 34.0794 35.8344 34.366 35.8344 34.8256C35.8344 35.3853 35.537 35.9028 35.0535 36.1846L25.427 41.8302C25.0298 42.0616 24.5312 41.7752 24.5312 41.3156C24.5312 40.756 24.8286 40.2384 25.3121 39.9566V39.9566Z" fill="#B5B9C3"></path> <path d="M38.3408 9.64045C38.2846 9.51106 38.1646 9.47483 38.0308 9.54699C37.8969 9.61965 37.7727 9.78723 37.7097 9.98098L35.1793 17.7645C35.0876 18.0465 35.1525 18.2938 35.3244 18.3168C35.4963 18.3399 35.7099 18.1299 35.8015 17.848L36.6427 15.2606L39.1746 13.7988L39.8961 15.4602C39.9558 15.5975 40.0832 15.6249 40.2163 15.548C40.2658 15.5194 40.3163 15.4763 40.3642 15.419C40.5409 15.2078 40.6178 14.884 40.5361 14.6955L38.3408 9.64045ZM37.019 14.103L37.9984 11.0903L38.8482 13.047L37.019 14.103Z" fill="url(#paint13_linear)"></path> <path d="M42.4347 9.43744L41.7585 9.82777V8.92621C41.7585 8.66654 41.6006 8.5472 41.4059 8.65961C41.2111 8.77201 41.0532 9.07367 41.0532 9.33334V10.2349L40.3771 10.6252C40.1823 10.7376 40.0244 11.0393 40.0244 11.299C40.0244 11.5586 40.1823 11.678 40.3771 11.5656L41.0532 11.1752V12.0767C41.0532 12.3364 41.2111 12.4557 41.4059 12.3433C41.6006 12.2309 41.7585 11.9292 41.7585 11.6696V10.7681L42.4347 10.3778C42.6294 10.2654 42.7873 9.96371 42.7873 9.70404C42.7873 9.44437 42.6294 9.32494 42.4347 9.43744Z" fill="url(#paint14_linear)"></path> </g> <defs> <linearGradient id="paint0_linear" x1="8.98184" y1="18.7033" x2="9.62373" y2="17.5915" gradientUnits="userSpaceOnUse"> <stop stop-color="#C5BAEB"></stop> <stop offset="0.9627" stop-color="#E9E5F6"></stop> </linearGradient> <linearGradient id="paint1_linear" x1="13.4471" y1="70.795" x2="-10.6393" y2="29.0774" gradientUnits="userSpaceOnUse"> <stop stop-color="#C5BAEB"></stop> <stop offset="0.4836" stop-color="#E9E5F6"></stop> <stop offset="1" stop-color="#F2EDFF"></stop> </linearGradient> <linearGradient id="paint2_linear" x1="19.364" y1="31.1784" x2="19.364" y2="9.43148" gradientUnits="userSpaceOnUse"> <stop stop-color="#60AA5C"></stop> <stop offset="0.2614" stop-color="#62AE5E"></stop> <stop offset="0.53" stop-color="#69BA65"></stop> <stop offset="0.801" stop-color="#75CF70"></stop> <stop offset="1" stop-color="#80E37B"></stop> </linearGradient> <linearGradient id="paint3_linear" x1="17.8533" y1="31.1784" x2="17.8533" y2="9.43147" gradientUnits="userSpaceOnUse"> <stop stop-color="#60AA5C"></stop> <stop offset="0.2614" stop-color="#62AE5E"></stop> <stop offset="0.53" stop-color="#69BA65"></stop> <stop offset="0.801" stop-color="#75CF70"></stop> <stop offset="1" stop-color="#80E37B"></stop> </linearGradient> <linearGradient id="paint4_linear" x1="21.406" y1="31.1785" x2="21.406" y2="9.43158" gradientUnits="userSpaceOnUse"> <stop stop-color="#60AA5C"></stop> <stop offset="0.2614" stop-color="#62AE5E"></stop> <stop offset="0.53" stop-color="#69BA65"></stop> <stop offset="0.801" stop-color="#75CF70"></stop> <stop offset="1" stop-color="#80E37B"></stop> </linearGradient> <linearGradient id="paint5_linear" x1="18.9818" y1="18.7033" x2="19.6237" y2="17.5915" gradientUnits="userSpaceOnUse"> <stop stop-color="#C5BAEB"></stop> <stop offset="0.9627" stop-color="#E9E5F6"></stop> </linearGradient> <linearGradient id="paint6_linear" x1="23.4471" y1="70.795" x2="-0.63928" y2="29.0774" gradientUnits="userSpaceOnUse"> <stop stop-color="#C5BAEB"></stop> <stop offset="0.4836" stop-color="#E9E5F6"></stop> <stop offset="1" stop-color="#F2EDFF"></stop> </linearGradient> <linearGradient id="paint7_linear" x1="29.364" y1="31.1784" x2="29.364" y2="9.43148" gradientUnits="userSpaceOnUse"> <stop stop-color="#60AA5C"></stop> <stop offset="0.2614" stop-color="#62AE5E"></stop> <stop offset="0.53" stop-color="#69BA65"></stop> <stop offset="0.801" stop-color="#75CF70"></stop> <stop offset="1" stop-color="#80E37B"></stop> </linearGradient> <linearGradient id="paint8_linear" x1="27.8533" y1="31.1784" x2="27.8533" y2="9.43147" gradientUnits="userSpaceOnUse"> <stop stop-color="#60AA5C"></stop> <stop offset="0.2614" stop-color="#62AE5E"></stop> <stop offset="0.53" stop-color="#69BA65"></stop> <stop offset="0.801" stop-color="#75CF70"></stop> <stop offset="1" stop-color="#80E37B"></stop> </linearGradient> <linearGradient id="paint9_linear" x1="31.406" y1="31.1785" x2="31.406" y2="9.43158" gradientUnits="userSpaceOnUse"> <stop stop-color="#60AA5C"></stop> <stop offset="0.2614" stop-color="#62AE5E"></stop> <stop offset="0.53" stop-color="#69BA65"></stop> <stop offset="0.801" stop-color="#75CF70"></stop> <stop offset="1" stop-color="#80E37B"></stop> </linearGradient> <linearGradient id="paint10_linear" x1="28.9818" y1="18.7033" x2="29.6237" y2="17.5915" gradientUnits="userSpaceOnUse"> <stop stop-color="#C5BAEB"></stop> <stop offset="0.9627" stop-color="#E9E5F6"></stop> </linearGradient> <linearGradient id="paint11_linear" x1="33.4471" y1="70.795" x2="9.36072" y2="29.0774" gradientUnits="userSpaceOnUse"> <stop stop-color="#C5BAEB"></stop> <stop offset="0.4836" stop-color="#E9E5F6"></stop> <stop offset="1" stop-color="#F2EDFF"></stop> </linearGradient> <linearGradient id="paint12_linear" x1="39.364" y1="31.1784" x2="39.364" y2="9.43148" gradientUnits="userSpaceOnUse"> <stop stop-color="#60AA5C"></stop> <stop offset="0.2614" stop-color="#62AE5E"></stop> <stop offset="0.53" stop-color="#69BA65"></stop> <stop offset="0.801" stop-color="#75CF70"></stop> <stop offset="1" stop-color="#80E37B"></stop> </linearGradient> <linearGradient id="paint13_linear" x1="37.8533" y1="31.1784" x2="37.8533" y2="9.43147" gradientUnits="userSpaceOnUse"> <stop stop-color="#60AA5C"></stop> <stop offset="0.2614" stop-color="#62AE5E"></stop> <stop offset="0.53" stop-color="#69BA65"></stop> <stop offset="0.801" stop-color="#75CF70"></stop> <stop offset="1" stop-color="#80E37B"></stop> </linearGradient> <linearGradient id="paint14_linear" x1="41.406" y1="31.1785" x2="41.406" y2="9.43158" gradientUnits="userSpaceOnUse"> <stop stop-color="#60AA5C"></stop> <stop offset="0.2614" stop-color="#62AE5E"></stop> <stop offset="0.53" stop-color="#69BA65"></stop> <stop offset="0.801" stop-color="#75CF70"></stop> <stop offset="1" stop-color="#80E37B"></stop> </linearGradient> <clipPath id="clip0"> <rect width="26" height="50.0001" fill="white" transform="translate(0 -0.000244141)"></rect> </clipPath> <clipPath id="clip1"> <rect width="26" height="50.0001" fill="white" transform="translate(10 -0.000244141)"></rect> </clipPath> <clipPath id="clip2"> <rect width="26" height="50.0001" fill="white" transform="translate(20 -0.000244141)"></rect> </clipPath> </defs> </svg> 