<?xml version="1.0" encoding="UTF-8"?> <svg xmlns="http://www.w3.org/2000/svg" width="28" height="50" viewBox="0 0 28 50" fill="none"> <path d="M15.6036 47.3632V31.7192L7.77808 32.3992V48.0178H7.77818C7.75894 48.5534 8.07212 49.0674 8.73238 49.4485C10.1474 50.2655 12.6191 50.1631 14.2531 49.2197C15.1722 48.6891 15.6304 48.0053 15.6036 47.3632Z" fill="url(#paint0_linear)"></path> <path d="M16.0807 34.367V28.1541L7.29967 28.917V35.1015H7.29976C7.27818 35.7026 7.62965 36.2793 8.37047 36.707C9.95836 37.6237 12.7318 37.5087 14.5653 36.4502C15.5966 35.8548 16.1109 35.0875 16.0807 34.367V34.367Z" fill="url(#paint1_linear)"></path> <path d="M23.8114 4.09961L18.1612 0.770218L18.1609 0.770999C16.311 -0.358982 13.873 -0.287497 11.2004 1.25547C5.41963 4.59297 0.733398 13.5468 0.733398 21.2545C0.733398 25.4155 2.09971 28.3617 4.26621 29.6678L4.26582 29.6686L4.30303 29.69C4.33457 29.7087 4.36631 29.7271 4.39824 29.7451L9.82471 32.941L23.8114 4.09961Z" fill="url(#paint2_linear)"></path> <path d="M27.2668 12.4665C27.2668 4.75885 22.5807 1.21617 16.7999 4.55367C11.0191 7.89117 6.33301 16.845 6.33301 24.5527C6.33301 32.2604 11.0191 35.803 16.7999 32.4656C22.5807 29.128 27.2668 20.1742 27.2668 12.4665Z" fill="url(#paint3_linear)"></path> <path d="M24.6588 13.972C24.6588 8.18469 21.1401 5.52463 16.7996 8.03069C12.4591 10.5365 8.94043 17.2597 8.94043 23.047C8.94043 28.8343 12.4591 31.4944 16.7996 28.9883C21.1401 26.4822 24.6588 19.7593 24.6588 13.972Z" fill="url(#paint4_linear)"></path> <path d="M20.5713 7.13753C19.4516 6.96565 18.1665 7.24153 16.7996 8.03079C12.4592 10.5367 8.94043 17.2598 8.94043 23.0471C8.94043 25.3965 9.52041 27.2304 10.4997 28.4126C11.6194 28.5845 12.9045 28.3086 14.2714 27.5194C18.6119 25.0134 22.1306 18.2904 22.1306 12.5031C22.1306 10.1536 21.5506 8.31976 20.5713 7.13753V7.13753Z" fill="url(#paint5_linear)"></path> <path d="M20.5713 7.13753C19.4516 6.96565 18.1665 7.24153 16.7996 8.03079C12.4592 10.5366 8.94043 17.2598 8.94043 23.0471C8.94043 23.663 8.98125 24.2425 9.05772 24.7852L22.1079 11.735C21.9946 9.75237 21.441 8.18743 20.5713 7.13753V7.13753Z" fill="url(#paint6_linear)"></path> <defs> <linearGradient id="paint0_linear" x1="7.7774" y1="40.8597" x2="15.6047" y2="40.8597" gradientUnits="userSpaceOnUse"> <stop stop-color="#565D68"></stop> <stop offset="1" stop-color="#838B9B"></stop> </linearGradient> <linearGradient id="paint1_linear" x1="7.29889" y1="32.74" x2="16.082" y2="32.74" gradientUnits="userSpaceOnUse"> <stop stop-color="#D7D1EB"></stop> <stop offset="0.8982" stop-color="#E9E5F6"></stop> </linearGradient> <linearGradient id="paint2_linear" x1="2.88526" y1="28.0559" x2="14.1621" y2="8.52383" gradientUnits="userSpaceOnUse"> <stop stop-color="#565D68"></stop> <stop offset="1" stop-color="#838B9B"></stop> </linearGradient> <linearGradient id="paint3_linear" x1="16.7998" y1="31.2043" x2="16.7998" y2="-29.7012" gradientUnits="userSpaceOnUse"> <stop stop-color="#565D68"></stop> <stop offset="1" stop-color="#838B9B"></stop> </linearGradient> <linearGradient id="paint4_linear" x1="16.7997" y1="11.5268" x2="16.7997" y2="29.8305" gradientUnits="userSpaceOnUse"> <stop stop-color="#565D68"></stop> <stop offset="1" stop-color="#838B9B"></stop> </linearGradient> <linearGradient id="paint5_linear" x1="15.5354" y1="42.5622" x2="15.5354" y2="9.15755" gradientUnits="userSpaceOnUse"> <stop stop-color="#C5BAEB"></stop> <stop offset="0.4836" stop-color="#DFDAEF"></stop> <stop offset="1" stop-color="#F2EDFF"></stop> </linearGradient> <linearGradient id="paint6_linear" x1="18.1259" y1="22.0982" x2="13.7167" y2="13.7708" gradientUnits="userSpaceOnUse"> <stop stop-color="white"></stop> <stop offset="1" stop-color="white" stop-opacity="0"></stop> </linearGradient> </defs> </svg> 