<?xml version="1.0" encoding="UTF-8"?> <svg xmlns="http://www.w3.org/2000/svg" width="44" height="50" viewBox="0 0 44 50" fill="none"> <path d="M43.3698 36.4608V33.4266L27.2363 23.8186L0.628906 34.6455V36.1445C0.628906 38.0229 1.63203 39.7583 3.25967 40.6959L18.9941 49.7692C19.4776 50.0484 20.2091 50.0787 20.6278 49.8369L43.0882 36.8694C43.2773 36.76 43.3693 36.6139 43.3698 36.4608V36.4608Z" fill="url(#paint0_linear)"></path> <path d="M26.9684 1.75362L24.3788 0.0740323L24.3787 0.0742277C24.2419 -0.0260653 24.0545 -0.028702 23.8476 0.0907316L1.38711 13.0583C0.968359 13.3001 0.628906 13.9486 0.628906 14.5069V35.6818C0.628906 36.0023 0.741016 36.2225 0.91543 36.307L3.5126 37.8062L26.3229 2.73067L26.9684 1.75362Z" fill="url(#paint1_linear)"></path> <path d="M26.4783 1.79652L4.01797 14.764C3.59922 15.0058 3.25977 15.6543 3.25977 16.2126V37.6615L5.73389 36.9091L27.2364 24.3588V23.8185V2.36966C27.2364 1.81146 26.897 1.55482 26.4783 1.79652V1.79652Z" fill="url(#paint2_linear)"></path> <path d="M4.66211 16.0111V32.9649L25.8349 20.7407V3.78711L4.66211 16.0111Z" fill="url(#paint3_linear)"></path> <path d="M42.971 32.8921L27.2365 23.8187L3.25977 37.6616L18.9942 46.7349C19.4777 47.0141 20.2092 47.0443 20.6279 46.8026L43.0883 33.8351C43.507 33.5934 43.4545 33.1712 42.971 32.8921V32.8921Z" fill="url(#paint4_linear)"></path> <path d="M34.8204 30.1555L27.9457 26.1707C27.5068 25.9172 26.9659 25.9172 26.5269 26.1707L7.70344 37.0383C7.22385 37.3152 7.22385 38.0075 7.70344 38.2844L14.5782 42.2693C15.0171 42.5227 15.558 42.5227 15.997 42.2693L34.8204 31.4016C35.3 31.1247 35.3 30.4324 34.8204 30.1555Z" fill="#C5BAEB"></path> <path d="M23.8529 38.8998L30.8622 34.853C31.2343 34.638 31.6929 34.638 32.0652 34.853L34.6589 36.3504C35.0005 36.5477 35.0005 37.0408 34.6589 37.2379L27.6497 41.2847C27.2775 41.4997 26.8189 41.4997 26.4467 41.2847L23.853 39.7873C23.5113 39.5901 23.5113 39.097 23.8529 38.8998V38.8998Z" fill="#C5BAEB"></path> <path d="M8.56252 37.3224L10.8745 35.9876C11.1429 35.8326 11.4736 35.8326 11.7419 35.9876L12.4277 36.3835C12.653 36.5136 12.653 36.8386 12.4277 36.9687L10.1157 38.3036C9.84729 38.4586 9.51663 38.4586 9.24827 38.3036L8.56252 37.9077C8.33723 37.7776 8.33723 37.4524 8.56252 37.3224V37.3224Z" fill="#E9E5F6"></path> <path d="M12.5547 35.0099L14.8667 33.6751C15.1351 33.5201 15.4657 33.5201 15.7341 33.6751L16.4199 34.071C16.6451 34.201 16.6451 34.5261 16.4199 34.6562L14.1078 35.9911C13.8395 36.146 13.5088 36.146 13.2405 35.9911L12.5547 35.5952C12.3294 35.4652 12.3294 35.14 12.5547 35.0099Z" fill="#E9E5F6"></path> <path d="M16.5468 32.6974L18.8588 31.3626C19.1272 31.2076 19.4579 31.2076 19.7262 31.3626L20.412 31.7585C20.6373 31.8885 20.6373 32.2136 20.412 32.3437L18.1 33.6786C17.8316 33.8336 17.5009 33.8336 17.2326 33.6786L16.5468 33.2827C16.3216 33.1526 16.3216 32.8275 16.5468 32.6974Z" fill="#E9E5F6"></path> <path d="M20.5391 30.3851L22.8511 29.0502C23.1195 28.8954 23.4501 28.8954 23.7185 29.0502L24.4042 29.4461C24.6295 29.5762 24.6295 29.9013 24.4042 30.0314L22.0922 31.3663C21.8238 31.5212 21.4932 31.5212 21.2248 31.3663L20.5391 30.9704C20.3138 30.8404 20.3138 30.5152 20.5391 30.3851Z" fill="#E9E5F6"></path> <path d="M24.5303 28.0727L26.8423 26.7378C27.1107 26.5828 27.4413 26.5828 27.7097 26.7378L28.3954 27.1337C28.6207 27.2638 28.6207 27.5889 28.3954 27.719L26.0834 29.0537C25.8151 29.2087 25.4844 29.2087 25.216 29.0537L24.5303 28.6578C24.305 28.5279 24.305 28.2028 24.5303 28.0727Z" fill="#E9E5F6"></path> <path d="M10.7549 38.5779L13.0669 37.2431C13.3353 37.0881 13.6659 37.0881 13.9343 37.2431L15.3058 38.0473C15.5311 38.1773 15.5311 38.5024 15.3058 38.6325L12.9938 39.9674C12.7254 40.1224 12.3948 40.1224 12.1264 39.9674L10.7549 39.1632C10.5296 39.0332 10.5296 38.708 10.7549 38.5779Z" fill="#E9E5F6"></path> <path d="M14.7471 36.2656L17.0591 34.9307C17.3275 34.7757 17.6581 34.7757 17.9265 34.9307L19.298 35.7349C19.5233 35.865 19.5233 36.1901 19.298 36.3201L16.986 37.655C16.7176 37.81 16.3869 37.81 16.1186 37.655L14.7471 36.8508C14.5218 36.7207 14.5218 36.3956 14.7471 36.2656Z" fill="#E9E5F6"></path> <path d="M18.7393 33.9532L21.0513 32.6184C21.3197 32.4635 21.6503 32.4635 21.9187 32.6184L23.2902 33.4226C23.5155 33.5526 23.5155 33.8777 23.2902 34.0078L20.9782 35.3426C20.7098 35.4976 20.3791 35.4976 20.1108 35.3426L18.7393 34.5384C18.514 34.4085 18.514 34.0833 18.7393 33.9532V33.9532Z" fill="#E9E5F6"></path> <path d="M22.7305 31.6407L25.0425 30.3058C25.3109 30.1508 25.6415 30.1508 25.9099 30.3058L27.2814 31.11C27.5067 31.2401 27.5067 31.5652 27.2814 31.6953L24.9694 33.0301C24.701 33.1851 24.3703 33.1851 24.102 33.0301L22.7305 32.2259C22.5052 32.0959 22.5052 31.7708 22.7305 31.6407Z" fill="#E9E5F6"></path> <path d="M26.7227 29.3282L29.0347 27.9934C29.303 27.8385 29.6337 27.8385 29.9021 27.9934L31.2735 28.7976C31.4988 28.9277 31.4988 29.2528 31.2735 29.3829L28.9615 30.7177C28.6932 30.8726 28.3625 30.8726 28.0942 30.7177L26.7227 29.9135C26.4974 29.7835 26.4974 29.4583 26.7227 29.3282V29.3282Z" fill="#E9E5F6"></path> <path d="M13.7031 40.2771L16.0151 38.9422C16.2834 38.7873 16.6141 38.7873 16.8825 38.9422L18.254 39.7464C18.4793 39.8765 18.4793 40.2016 18.254 40.3317L15.9419 41.6665C15.6736 41.8215 15.3429 41.8215 15.0746 41.6665L13.7031 40.8623C13.4779 40.7322 13.4779 40.4072 13.7031 40.2771Z" fill="#E9E5F6"></path> <path d="M17.6953 37.9647L20.0073 36.6298C20.2757 36.4748 20.6064 36.4748 20.8747 36.6298L22.2462 37.434C22.4715 37.5641 22.4715 37.8892 22.2462 38.0192L19.9342 39.3541C19.6658 39.5091 19.3352 39.5091 19.0668 39.3541L17.6953 38.5499C17.47 38.4198 17.47 38.0946 17.6953 37.9647V37.9647Z" fill="#E9E5F6"></path> <path d="M21.6875 35.6522L23.9995 34.3173C24.2679 34.1625 24.5986 34.1625 24.8669 34.3173L26.2384 35.1215C26.4637 35.2516 26.4637 35.5767 26.2384 35.7068L23.9264 37.0416C23.658 37.1965 23.3274 37.1965 23.059 37.0416L21.6875 36.2375C21.4622 36.1074 21.4622 35.7823 21.6875 35.6522V35.6522Z" fill="#E9E5F6"></path> <path d="M25.6787 33.3398L27.9907 32.0049C28.2591 31.8499 28.5898 31.8499 28.8581 32.0049L30.2296 32.8091C30.4549 32.9392 30.4549 33.2643 30.2296 33.3944L27.9176 34.7292C27.6492 34.8842 27.3186 34.8842 27.0502 34.7292L25.6787 33.925C25.4534 33.795 25.4534 33.4698 25.6787 33.3398Z" fill="#E9E5F6"></path> <path d="M29.6709 31.0273L31.9829 29.6924C32.2513 29.5374 32.582 29.5374 32.8503 29.6924L34.2218 30.4966C34.4471 30.6267 34.4471 30.9518 34.2218 31.0819L31.9098 32.4167C31.6414 32.5716 31.3108 32.5716 31.0424 32.4167L29.6709 31.6125C29.4456 31.4825 29.4456 31.1573 29.6709 31.0273Z" fill="#E9E5F6"></path> <path d="M25.8349 7.58545V3.78711L4.66211 16.0111V28.7582L25.8349 7.58545Z" fill="url(#paint5_linear)"></path> <defs> <linearGradient id="paint0_linear" x1="20.2671" y1="36.9093" x2="23.0476" y2="36.9093" gradientUnits="userSpaceOnUse"> <stop stop-color="#C5BAEB"></stop> <stop offset="1" stop-color="#E9E5F6"></stop> </linearGradient> <linearGradient id="paint1_linear" x1="6.91777" y1="19.8174" x2="8.48447" y2="17.1037" gradientUnits="userSpaceOnUse"> <stop stop-color="#C5BAEB"></stop> <stop offset="1" stop-color="#E9E5F6"></stop> </linearGradient> <linearGradient id="paint2_linear" x1="15.2481" y1="60.9545" x2="15.2481" y2="6.3554" gradientUnits="userSpaceOnUse"> <stop stop-color="#C5BAEB"></stop> <stop offset="0.4836" stop-color="#E9E5F6"></stop> <stop offset="1" stop-color="#F2EFFA"></stop> </linearGradient> <linearGradient id="paint3_linear" x1="15.2485" y1="36.944" x2="15.2485" y2="-2.71416" gradientUnits="userSpaceOnUse"> <stop stop-color="#0072BC"></stop> <stop offset="0.3545" stop-color="#59ACF9"></stop> <stop offset="0.6972" stop-color="#70C8FD"></stop> <stop offset="0.8982" stop-color="#79D3FE"></stop> </linearGradient> <linearGradient id="paint4_linear" x1="38.7247" y1="44.2888" x2="9.46749" y2="27.3972" gradientUnits="userSpaceOnUse"> <stop stop-color="#C5BAEB"></stop> <stop offset="0.4836" stop-color="#E9E5F6"></stop> <stop offset="1" stop-color="#F2EFFA"></stop> </linearGradient> <linearGradient id="paint5_linear" x1="25.1356" y1="37.1136" x2="14.152" y2="13.9611" gradientUnits="userSpaceOnUse"> <stop stop-color="white"></stop> <stop offset="1" stop-color="white" stop-opacity="0"></stop> </linearGradient> </defs> </svg> 