<?xml version="1.0" encoding="UTF-8"?> <svg xmlns="http://www.w3.org/2000/svg" width="48" height="48" viewBox="0 0 48 48" fill="none"> <circle cx="24" cy="24" r="22.5" fill="white" stroke="white" stroke-width="3"></circle> <path d="M21.0249 30.347C21.1761 30.347 21.3213 30.3217 21.4606 30.271C21.5999 30.2204 21.7499 30.1444 21.9104 30.043L30.2764 25.1C30.5834 24.9166 30.8042 24.7442 30.9388 24.5825C31.0733 24.4209 31.1406 24.2267 31.1406 23.9999C31.1406 23.7732 31.0733 23.579 30.9388 23.4173C30.8042 23.2557 30.5834 23.0856 30.2764 22.9071L21.9104 17.9568C21.7499 17.8603 21.5999 17.7855 21.4606 17.7324C21.3213 17.6794 21.1761 17.6528 21.0249 17.6528C20.7369 17.6528 20.4996 17.759 20.313 17.9713C20.1265 18.1836 20.0332 18.4682 20.0332 18.8253V29.1746C20.0332 29.5316 20.1265 29.8163 20.313 30.0286C20.4996 30.2409 20.7369 30.347 21.0249 30.347V30.347Z" fill="#070605"></path> </svg> 