<?xml version="1.0" encoding="UTF-8"?> <svg xmlns="http://www.w3.org/2000/svg" width="16" height="16" viewBox="0 0 16 16" fill="none"> <path fill-rule="evenodd" clip-rule="evenodd" d="M10.4559 0H5.54411C1.0614 0 0 1.0614 0 5.54411V10.4559C0 14.9386 1.0614 16 5.54411 16H10.4559C14.9386 16 16 14.9386 16 10.4559V5.54411C16 1.0614 14.9386 0 10.4559 0ZM12.748 5.08114C13.098 5.08114 13.177 5.26181 13.098 5.51022C12.9746 6.07953 11.9503 7.58972 11.633 8.05747C11.5727 8.14635 11.538 8.19759 11.5398 8.19759C11.4156 8.40084 11.3704 8.49117 11.5398 8.717C11.601 8.80049 11.7308 8.92789 11.8792 9.07349C12.0318 9.22325 12.2041 9.39226 12.3415 9.55256C12.8383 10.1171 13.2222 10.5914 13.3238 10.9188C13.4142 11.2463 13.2561 11.4157 12.9173 11.4157H11.7543C11.4461 11.4157 11.2872 11.2387 10.9486 10.8614C10.8035 10.6997 10.6252 10.5011 10.388 10.2639C9.69927 9.59773 9.3944 9.5074 9.22503 9.5074C8.98791 9.5074 8.92016 9.56386 8.92016 9.9026V10.9527C8.92016 11.235 8.82982 11.4044 8.08459 11.4044C6.85382 11.4044 5.48755 10.6591 4.52778 9.27028C3.08247 7.23781 2.68727 5.70217 2.68727 5.3973C2.68727 5.22793 2.74373 5.06985 3.08247 5.06985H4.25678C4.55036 5.06985 4.66328 5.19406 4.77619 5.52151C5.35205 7.18136 6.31183 8.63796 6.70703 8.63796C6.85382 8.63796 6.92157 8.57021 6.92157 8.19759V6.48129C6.89369 5.99344 6.72387 5.78089 6.59794 5.62328C6.51984 5.52553 6.45862 5.4489 6.45862 5.34085C6.45862 5.20535 6.57153 5.06985 6.7522 5.06985H8.58141C8.82982 5.06985 8.92016 5.20535 8.92016 5.49893V7.81368C8.92016 8.06209 9.02178 8.15242 9.10082 8.15242C9.24761 8.15242 9.37181 8.06209 9.64281 7.7911C10.4784 6.8539 11.0768 5.4086 11.0768 5.4086C11.1559 5.23922 11.2914 5.08114 11.5849 5.08114H12.748Z" fill="#4680C2"></path> </svg> 